<?xml version="1.0" standalone="no"?>
<!DOCTYPE svg PUBLIC "-//W3C//DTD SVG 20010904//EN"
 "http://www.w3.org/TR/2001/REC-SVG-20010904/DTD/svg10.dtd">
<svg version="1.0" xmlns="http://www.w3.org/2000/svg"
 width="512.000000pt" height="512.000000pt" viewBox="0 0 512.000000 512.000000"
 preserveAspectRatio="xMidYMid meet">
<metadata>
Created by potrace 1.16, written by Peter Selinger 2001-2019
</metadata>
<circle cx="256" cy="256" r="256" fill="black"/>
<g transform="translate(-15.36, 527.36) scale(0.106, -0.106)">
<path fill="#FF6B6B" stroke="#FF6B6B" stroke-width="200" stroke-linejoin="round" d="M2800 4550 c0 -5 17 -12 38 -16 20 -3 82 -15 137 -26 281 -56 575
-196 844 -401 41 -31 77 -54 80 -51 11 11 -115 118 -224 190 -244 160 -463
252 -714 298 -94 18 -161 21 -161 6z"/>
<path fill="#4ECDC4" stroke="#4ECDC4" stroke-width="200" stroke-linejoin="round" d="M2055 4383 c-129 -30 -343 -124 -478 -210 -131 -83 -337 -256 -323
-270 3 -3 40 24 83 59 234 194 441 313 693 399 74 25 87 36 25 22z"/>
<path fill="#45B7D1" stroke="#45B7D1" stroke-width="200" stroke-linejoin="round" d="M2768 4283 c7 -3 16 -2 19 1 4 3 -2 6 -13 5 -11 0 -14 -3 -6 -6z"/>
<path fill="#96CEB4" stroke="#96CEB4" stroke-width="200" stroke-linejoin="round" d="M2865 4260 c39 -11 99 -31 134 -45 70 -27 91 -31 91 -15 0 16 -50 36
-146 59 -115 27 -177 27 -79 1z"/>
<path fill="#FFEAA7" stroke="#FFEAA7" stroke-width="200" stroke-linejoin="round" d="M4144 4205 c-7 -29 10 -55 36 -55 26 0 43 26 36 55 -5 20 -13 25 -36
25 -23 0 -31 -5 -36 -25z"/>
<path fill="#DDA15E" stroke="#DDA15E" stroke-width="200" stroke-linejoin="round" d="M3525 4102 c6 -5 55 -46 110 -89 238 -190 428 -433 560 -716 108
-234 154 -482 143 -777 -4 -96 -3 -119 3 -80 5 30 9 127 9 215 1 272 -44 463
-167 709 -138 276 -324 504 -544 668 -69 52 -137 93 -114 70z"/>
<path fill="#F38181" stroke="#F38181" stroke-width="200" stroke-linejoin="round" d="M2330 4005 c-143 -26 -288 -86 -420 -173 -41 -27 -84 -60 -95 -73
l-20 -23 30 19 c200 129 412 203 630 222 70 6 90 11 90 23 0 21 -115 23 -215
5z"/>
<path fill="#9B59B6" stroke="#9B59B6" stroke-width="200" stroke-linejoin="round" d="M2496 3919 c-202 -23 -385 -90 -536 -197 -187 -132 -295 -287 -398
-567 -66 -182 -77 -245 -77 -450 0 -102 4 -187 10 -197 7 -11 10 18 11 100 1
96 6 133 28 207 53 175 164 378 271 494 30 34 55 65 55 70 0 5 -7 14 -15 21
-19 15 -52 -19 -161 -164 -64 -85 -73 -94 -68 -65 23 127 109 288 213 401 207
225 493 338 856 341 103 1 125 3 85 8 -71 9 -187 8 -274 -2z"/>
<path fill="#E91E63" stroke="#E91E63" stroke-width="200" stroke-linejoin="round" d="M3106 3861 c133 -66 259 -147 334 -214 23 -22 28 -24 15 -8 -54 67
-172 154 -290 213 -68 35 -176 78 -193 78 -3 0 57 -31 134 -69z"/>
<path fill="#3498DB" stroke="#3498DB" stroke-width="200" stroke-linejoin="round" d="M2640 3759 c-230 -25 -453 -120 -675 -287 -80 -59 -100 -82 -74 -82
6 0 39 22 73 49 122 96 284 184 423 230 154 50 399 86 522 76 53 -4 59 -3 31
5 -56 14 -208 19 -300 9z"/>
<path fill="#2ECC71" stroke="#2ECC71" stroke-width="200" stroke-linejoin="round" d="M2845 3729 c-270 -14 -483 -101 -658 -268 -90 -86 -144 -161 -192
-265 -36 -77 -69 -191 -61 -209 2 -7 5 -4 5 5 1 10 11 46 22 80 103 301 350
520 687 610 98 26 306 36 394 18 110 -21 227 -96 355 -227 139 -142 207 -252
269 -434 102 -300 110 -608 23 -884 -106 -338 -324 -571 -734 -784 -74 -39
-35 -30 60 14 152 69 328 195 435 312 73 80 213 288 274 407 130 254 134 622
10 919 -31 74 -154 286 -199 342 -48 61 -51 75 -5 25 23 -25 46 -45 51 -45 4
0 14 -6 21 -12 15 -16 38 -17 38 -2 0 33 -228 226 -364 307 -90 54 -219 108
-224 93 -2 -6 -13 -11 -23 -11 -11 0 -17 5 -14 10 3 6 -2 9 -12 8 -10 0 -81
-5 -158 -9z m890 -785 c15 -47 28 -111 30 -159 l5 -80 -18 100 c-16 86 -32
150 -58 232 -5 16 -4 16 5 2 5 -8 22 -51 36 -95z m65 -485 c-5 -57 -15 -124
-23 -149 -12 -42 -13 -35 -9 90 3 103 8 139 20 153 8 9 17 16 18 14 2 -2 -1
-50 -6 -108z"/>
<path fill="#F39C12" stroke="#F39C12" stroke-width="200" stroke-linejoin="round" d="M650 3680 c-33 -33 -19 -70 25 -70 42 0 59 44 29 74 -20 21 -30 20
-54 -4z"/>
<path fill="#E74C3C" stroke="#E74C3C" stroke-width="200" stroke-linejoin="round" d="M1352 3630 c-38 -36 -28 -101 20 -126 53 -28 108 6 108 67 0 47 -30
79 -75 79 -18 0 -41 -9 -53 -20z m96 -12 c21 -21 15 -76 -12 -93 -51 -34 -115
30 -81 81 17 27 72 33 93 12z"/>
<path fill="#1ABC9C" stroke="#1ABC9C" stroke-width="200" stroke-linejoin="round" d="M1827 3531 c-51 -54 -107 -137 -107 -158 0 -25 18 -13 54 35 34 46
108 172 102 172 -2 0 -24 -22 -49 -49z"/>
<path fill="#9966CC" stroke="#9966CC" stroke-width="200" stroke-linejoin="round" d="M1207 3515 c-118 -90 -268 -397 -282 -576 l-5 -64 15 79 c41 213 156
442 275 549 62 56 60 60 -3 12z"/>
<path fill="#FF9FF3" stroke="#FF9FF3" stroke-width="200" stroke-linejoin="round" d="M3103 3446 c221 -223 359 -531 393 -881 4 -44 10 -69 12 -55 6 39
-17 237 -38 322 -57 231 -193 477 -336 607 -100 92 -120 96 -31 7z"/>
<path fill="#54A0FF" stroke="#54A0FF" stroke-width="200" stroke-linejoin="round" d="M3573 3443 c104 -130 188 -281 254 -458 18 -49 31 -74 27 -55 -9 54
-81 226 -126 304 -48 82 -164 242 -198 271 -13 11 7 -17 43 -62z"/>
<path fill="#48DBFB" stroke="#48DBFB" stroke-width="200" stroke-linejoin="round" d="M3855 3435 c-67 -66 22 -166 96 -107 33 27 30 78 -5 109 -35 30 -61
29 -91 -2z m77 -7 c28 -22 31 -55 9 -77 -25 -25 -54 -27 -75 -5 -45 45 16 121
66 82z"/>
<path fill="#00D2D3" stroke="#00D2D3" stroke-width="200" stroke-linejoin="round" d="M1299 3416 c-9 -20 -9 -29 1 -41 27 -33 75 -7 68 37 -5 35 -54 38
-69 4z"/>
<path fill="#1DD1A1" stroke="#1DD1A1" stroke-width="200" stroke-linejoin="round" d="M4060 3325 c66 -134 117 -291 160 -500 24 -114 29 -127 24 -71 -16
187 -143 562 -228 671 -8 11 11 -34 44 -100z"/>
<path fill="#10AC84" stroke="#10AC84" stroke-width="200" stroke-linejoin="round" d="M3000 3393 c128 -103 228 -220 288 -338 60 -119 73 -177 99 -444 l5
-55 20 47 c20 45 20 49 4 142 -20 118 -86 287 -149 382 -64 97 -163 200 -238
251 -35 24 -48 31 -29 15z"/>
<path fill="#EE5A6F" stroke="#EE5A6F" stroke-width="200" stroke-linejoin="round" d="M3341 3384 c0 -11 3 -14 6 -6 3 7 2 16 -1 19 -3 4 -6 -2 -5 -13z"/>
<path fill="#C44569" stroke="#C44569" stroke-width="200" stroke-linejoin="round" d="M4353 3390 c16 -52 71 -180 78 -180 11 0 -13 66 -50 136 -18 32 -30
52 -28 44z"/>
<path fill="#F8B500" stroke="#F8B500" stroke-width="200" stroke-linejoin="round" d="M4536 3268 c87 -256 130 -484 144 -758 l7 -145 1 170 c3 234 -21 406
-84 612 -32 105 -93 253 -104 253 -5 0 12 -60 36 -132z"/>
<path fill="#FDA7DF" stroke="#FDA7DF" stroke-width="200" stroke-linejoin="round" d="M2323 3368 c-33 -16 -48 -61 -33 -98 23 -55 84 -67 125 -25 33 33 32
70 -4 106 -31 30 -52 35 -88 17z m79 -25 c39 -35 11 -103 -43 -103 -30 0 -59
31 -59 64 0 48 64 73 102 39z"/>
<path fill="#FF6B6B" stroke="#FF6B6B" stroke-width="200" stroke-linejoin="round" d="M3355 3332 c3 -19 34 -107 69 -195 78 -196 109 -298 131 -442 23
-144 16 -373 -14 -491 -43 -170 -148 -369 -265 -502 -54 -60 -55 -63 -12 -22
110 104 222 285 277 446 82 241 79 522 -8 798 -14 45 -58 155 -98 246 -40 91
-75 172 -79 180 -3 8 -4 0 -1 -18z"/>
<path fill="#4ECDC4" stroke="#4ECDC4" stroke-width="200" stroke-linejoin="round" d="M870 3238 c-59 -125 -97 -250 -104 -349 l-5 -74 18 85 c33 158 79
299 132 403 11 20 17 37 14 37 -4 0 -28 -46 -55 -102z"/>
<path fill="#45B7D1" stroke="#45B7D1" stroke-width="200" stroke-linejoin="round" d="M1537 3243 c-146 -180 -238 -479 -224 -733 13 -234 83 -428 225 -616
81 -107 281 -292 394 -365 108 -69 263 -142 373 -175 81 -25 105 -27 245 -28
141 0 163 3 245 28 169 51 382 161 441 227 16 18 12 17 -26 -6 -100 -63 -170
-99 -270 -140 -172 -69 -224 -80 -395 -79 -135 0 -159 3 -240 28 -115 35 -276
111 -380 181 -164 109 -259 230 -407 519 -45 88 -83 155 -85 149 -7 -20 28
-137 54 -183 14 -25 55 -88 91 -140 71 -103 51 -96 -28 10 -202 273 -265 613
-175 948 42 157 96 267 201 410 33 44 6 21 -39 -35z m128 -1453 c10 -11 16
-20 13 -20 -3 0 -13 9 -23 20 -10 11 -16 20 -13 20 3 0 13 -9 23 -20z"/>
<path fill="#96CEB4" stroke="#96CEB4" stroke-width="200" stroke-linejoin="round" d="M4442 3123 c9 -35 28 -68 28 -49 0 20 -24 86 -31 86 -4 0 -3 -17 3
-37z"/>
<path fill="#FFEAA7" stroke="#FFEAA7" stroke-width="200" stroke-linejoin="round" d="M521 2922 c-61 -258 -79 -434 -62 -617 56 -591 431 -1158 991 -1497
125 -75 160 -90 160 -69 0 5 -47 38 -105 72 -527 317 -898 821 -1001 1359 -37
194 -19 545 42 809 8 35 13 66 10 68 -2 2 -18 -54 -35 -125z"/>
<path fill="#DDA15E" stroke="#DDA15E" stroke-width="200" stroke-linejoin="round" d="M1262 2938 c-40 -140 -47 -191 -47 -358 1 -236 39 -407 140 -616 62
-129 142 -239 251 -344 l78 -75 -74 80 c-96 105 -161 198 -220 315 -154 307
-199 676 -119 989 25 96 18 103 -9 9z"/>
<path fill="#F38181" stroke="#F38181" stroke-width="200" stroke-linejoin="round" d="M912 2850 c0 -14 2 -19 5 -12 2 6 2 18 0 25 -3 6 -5 1 -5 -13z"/>
<path fill="#9B59B6" stroke="#9B59B6" stroke-width="200" stroke-linejoin="round" d="M4061 2794 c0 -11 3 -14 6 -6 3 7 2 16 -1 19 -3 4 -6 -2 -5 -13z"/>
<path fill="#E91E63" stroke="#E91E63" stroke-width="200" stroke-linejoin="round" d="M4075 2592 c-1 -157 -4 -189 -27 -287 -15 -60 -30 -121 -33 -135 -5
-20 -4 -20 8 5 22 48 56 195 66 290 7 60 7 121 0 194 -6 58 -12 107 -12 108
-1 1 -2 -78 -2 -175z"/>
<path fill="#3498DB" stroke="#3498DB" stroke-width="200" stroke-linejoin="round" d="M2232 2738 c-15 -15 -16 -60 0 -76 18 -18 53 -14 74 9 17 19 17 23 3
47 -16 30 -57 40 -77 20z"/>
<path fill="#2ECC71" stroke="#2ECC71" stroke-width="200" stroke-linejoin="round" d="M1032 2646 c-29 -51 -52 -101 -52 -110 0 -9 12 -22 26 -28 43 -20 58
-1 70 88 6 43 14 94 18 112 13 57 -9 35 -62 -62z"/>
<path fill="#F39C12" stroke="#F39C12" stroke-width="200" stroke-linejoin="round" d="M1585 2550 c-21 -40 -19 -83 4 -111 16 -20 23 -22 38 -13 15 10 17
22 15 75 -5 83 -29 104 -57 49z"/>
<path fill="#E74C3C" stroke="#E74C3C" stroke-width="200" stroke-linejoin="round" d="M4121 2519 c-1 -90 -26 -223 -57 -317 -32 -95 -119 -279 -168 -355
-43 -68 -44 -84 -11 -99 32 -14 45 -3 101 83 115 176 169 424 146 664 l-9 90
-2 -66z"/>
<path fill="#1ABC9C" stroke="#1ABC9C" stroke-width="200" stroke-linejoin="round" d="M2221 2539 c-1 -47 38 -183 76 -258 26 -55 57 -97 117 -157 167 -168
365 -219 584 -152 79 24 77 31 -3 12 -80 -18 -203 -18 -278 2 -219 57 -413
262 -477 506 -10 40 -19 61 -19 47z"/>
<path fill="#9966CC" stroke="#9966CC" stroke-width="200" stroke-linejoin="round" d="M3030 2523 c-62 -23 -81 -103 -35 -148 34 -35 88 -34 120 1 43 46 28
116 -30 139 -19 8 -36 15 -37 14 -2 0 -10 -3 -18 -6z m65 -38 c14 -13 25 -36
25 -50 0 -54 -71 -85 -112 -48 -24 22 -24 77 2 103 27 27 56 25 85 -5z"/>
<path fill="#FF9FF3" stroke="#FF9FF3" stroke-width="200" stroke-linejoin="round" d="M1126 2385 c32 -263 189 -581 375 -760 l63 -60 -63 70 c-163 182
-276 399 -347 670 -19 72 -32 108 -28 80z"/>
<path fill="#54A0FF" stroke="#54A0FF" stroke-width="200" stroke-linejoin="round" d="M1616 2336 c17 -117 119 -316 210 -412 26 -27 33 -33 16 -12 -92 112
-173 262 -211 393 -12 40 -19 53 -15 31z"/>
<path fill="#48DBFB" stroke="#48DBFB" stroke-width="200" stroke-linejoin="round" d="M2020 2367 c0 -3 12 -34 27 -69 63 -146 139 -245 247 -323 88 -62
152 -85 239 -85 117 0 160 21 70 35 -194 29 -399 169 -524 359 -32 49 -59 87
-59 83z"/>
<path fill="#00D2D3" stroke="#00D2D3" stroke-width="200" stroke-linejoin="round" d="M3499 2267 c-28 -144 -105 -301 -209 -424 -77 -92 -92 -118 -30 -54
81 85 148 179 190 266 41 85 74 212 68 265 -2 23 -7 9 -19 -53z"/>
<path fill="#1DD1A1" stroke="#1DD1A1" stroke-width="200" stroke-linejoin="round" d="M4673 2315 c0 -22 2 -30 4 -17 2 12 2 30 0 40 -3 9 -5 -1 -4 -23z"/>
<path fill="#10AC84" stroke="#10AC84" stroke-width="200" stroke-linejoin="round" d="M4662 2235 c0 -16 2 -22 5 -12 2 9 2 23 0 30 -3 6 -5 -1 -5 -18z"/>
<path fill="#EE5A6F" stroke="#EE5A6F" stroke-width="200" stroke-linejoin="round" d="M660 2239 c0 -22 55 -214 80 -282 28 -75 45 -74 19 1 -11 31 -33 106
-49 166 -27 101 -50 154 -50 115z"/>
<path fill="#C44569" stroke="#C44569" stroke-width="200" stroke-linejoin="round" d="M946 2200 c9 -80 49 -211 91 -297 47 -96 62 -105 18 -11 -41 90 -71
179 -96 283 -16 70 -18 73 -13 25z"/>
<path fill="#F8B500" stroke="#F8B500" stroke-width="200" stroke-linejoin="round" d="M4652 2180 c0 -14 2 -19 5 -12 2 6 2 18 0 25 -3 6 -5 1 -5 -13z"/>
<path fill="#FDA7DF" stroke="#FDA7DF" stroke-width="200" stroke-linejoin="round" d="M4641 2134 c0 -11 3 -14 6 -6 3 7 2 16 -1 19 -3 4 -6 -2 -5 -13z"/>
<path fill="#FF6B6B" stroke="#FF6B6B" stroke-width="200" stroke-linejoin="round" d="M4631 2084 c0 -11 3 -14 6 -6 3 7 2 16 -1 19 -3 4 -6 -2 -5 -13z"/>
<path fill="#4ECDC4" stroke="#4ECDC4" stroke-width="200" stroke-linejoin="round" d="M4150 2070 c-15 -29 -3 -59 26 -66 30 -8 54 11 54 40 0 46 -59 64
-80 26z"/>
<path fill="#45B7D1" stroke="#45B7D1" stroke-width="200" stroke-linejoin="round" d="M3080 2010 c-8 -5 -10 -10 -5 -10 6 0 17 5 25 10 8 5 11 10 5 10 -5
0 -17 -5 -25 -10z"/>
<path fill="#96CEB4" stroke="#96CEB4" stroke-width="200" stroke-linejoin="round" d="M4245 1980 c-17 -18 -17 -20 -1 -20 9 0 19 7 23 15 9 25 -2 27 -22 5z"/>
<path fill="#FFEAA7" stroke="#FFEAA7" stroke-width="200" stroke-linejoin="round" d="M3589 1778 c-23 -29 -65 -77 -93 -105 -28 -29 -45 -53 -39 -53 6 0
29 20 50 44 52 59 135 166 130 166 -3 0 -24 -24 -48 -52z"/>
<path fill="#DDA15E" stroke="#DDA15E" stroke-width="200" stroke-linejoin="round" d="M1930 1765 c0 -33 45 -67 153 -115 112 -50 249 -94 356 -114 168 -32
445 -13 576 39 22 8 29 13 15 10 -241 -55 -350 -64 -510 -41 -190 28 -332 83
-490 191 -44 30 -85 55 -90 55 -6 0 -10 -11 -10 -25z"/>
<path fill="#F38181" stroke="#F38181" stroke-width="200" stroke-linejoin="round" d="M3826 1609 c-32 -44 -94 -111 -137 -148 -112 -95 -370 -248 -518
-307 -101 -39 -125 -53 -141 -80 -43 -68 -18 -87 73 -54 202 73 379 191 557
369 112 112 240 270 240 295 0 18 -21 -4 -74 -75z"/>
<path fill="#9B59B6" stroke="#9B59B6" stroke-width="200" stroke-linejoin="round" d="M1214 1636 c-27 -27 -34 -42 -34 -74 0 -76 74 -127 143 -99 63 27 84
86 52 147 -34 65 -110 77 -161 26z m121 -21 c52 -52 21 -129 -52 -129 -68 0
-98 80 -48 129 13 14 36 25 50 25 14 0 37 -11 50 -25z"/>
<path fill="#E91E63" stroke="#E91E63" stroke-width="200" stroke-linejoin="round" d="M1750 1576 c53 -59 167 -146 257 -199 152 -89 327 -137 502 -137 88
0 252 21 306 40 l30 10 -30 -5 c-192 -32 -273 -38 -375 -27 -258 29 -423 105
-672 311 -53 45 -53 45 -18 7z"/>
<path fill="#3498DB" stroke="#3498DB" stroke-width="200" stroke-linejoin="round" d="M3345 1548 c-35 -36 -36 -38 -10 -21 36 25 72 63 59 63 -6 0 -28 -19
-49 -42z"/>
<path fill="#2ECC71" stroke="#2ECC71" stroke-width="200" stroke-linejoin="round" d="M4032 1473 c-86 -115 -150 -185 -247 -272 -74 -66 -54 -57 39 18 75
61 156 150 228 252 45 63 72 109 65 109 -2 0 -40 -48 -85 -107z"/>
<path fill="#F39C12" stroke="#F39C12" stroke-width="200" stroke-linejoin="round" d="M3616 1485 c-43 -41 -120 -102 -170 -135 -89 -59 -106 -76 -43 -44
90 47 233 163 278 225 11 16 19 29 17 29 -2 -1 -39 -34 -82 -75z"/>
<path fill="#E74C3C" stroke="#E74C3C" stroke-width="200" stroke-linejoin="round" d="M1440 1422 c0 -9 97 -98 155 -141 l20 -15 -20 20 c-66 68 -155 146
-155 136z"/>
<path fill="#1ABC9C" stroke="#1ABC9C" stroke-width="200" stroke-linejoin="round" d="M4083 1305 c-47 -59 -50 -65 -30 -65 15 0 45 37 71 88 25 48 7 38
-41 -23z"/>
<path fill="#9966CC" stroke="#9966CC" stroke-width="200" stroke-linejoin="round" d="M2858 1293 c7 -3 16 -2 19 1 4 3 -2 6 -13 5 -11 0 -14 -3 -6 -6z"/>
<path fill="#FF9FF3" stroke="#FF9FF3" stroke-width="200" stroke-linejoin="round" d="M1610 1166 c0 -2 8 -10 18 -17 15 -13 16 -12 3 4 -13 16 -21 21 -21
13z"/>
<path fill="#54A0FF" stroke="#54A0FF" stroke-width="200" stroke-linejoin="round" d="M1770 1166 c0 -21 260 -146 335 -161 17 -3 -4 7 -45 23 -78 30 -201
89 -257 124 -18 11 -33 17 -33 14z"/>
<path fill="#48DBFB" stroke="#48DBFB" stroke-width="200" stroke-linejoin="round" d="M1650 1136 c0 -2 8 -10 18 -17 15 -13 16 -12 3 4 -13 16 -21 21 -21
13z"/>
<path fill="#00D2D3" stroke="#00D2D3" stroke-width="200" stroke-linejoin="round" d="M3721 1109 c-31 -25 -23 -33 9 -9 14 10 23 21 20 23 -3 3 -16 -3 -29
-14z"/>
<path fill="#1DD1A1" stroke="#1DD1A1" stroke-width="200" stroke-linejoin="round" d="M1705 1095 c11 -9 29 -21 40 -26 l20 -10 -20 16 c-11 9 -29 21 -40
26 l-20 10 20 -16z"/>
<path fill="#10AC84" stroke="#10AC84" stroke-width="200" stroke-linejoin="round" d="M2858 1033 c7 -3 16 -2 19 1 4 3 -2 6 -13 5 -11 0 -14 -3 -6 -6z"/>
<path fill="#EE5A6F" stroke="#EE5A6F" stroke-width="200" stroke-linejoin="round" d="M2803 1023 c9 -2 23 -2 30 0 6 3 -1 5 -18 5 -16 0 -22 -2 -12 -5z"/>
<path fill="#C44569" stroke="#C44569" stroke-width="200" stroke-linejoin="round" d="M2700 1013 c-14 -2 -68 -8 -120 -13 l-95 -9 110 5 c104 5 233 22 160
21 -16 0 -41 -2 -55 -4z"/>
<path fill="#F8B500" stroke="#F8B500" stroke-width="200" stroke-linejoin="round" d="M1820 1004 c0 -9 181 -91 263 -119 183 -61 436 -89 622 -69 75 8 68
9 -115 15 -150 5 -224 13 -321 33 -131 26 -299 80 -381 122 -47 24 -68 29 -68
18z"/>
<path fill="#FDA7DF" stroke="#FDA7DF" stroke-width="200" stroke-linejoin="round" d="M3298 869 c-19 -11 -25 -39 -8 -39 20 0 60 24 60 37 0 15 -28 17 -52
2z"/>
<path fill="#FF6B6B" stroke="#FF6B6B" stroke-width="200" stroke-linejoin="round" d="M3568 715 c-20 -45 38 -79 62 -36 13 25 13 27 -6 45 -22 23 -43 20
-56 -9z"/>
<path fill="#4ECDC4" stroke="#4ECDC4" stroke-width="200" stroke-linejoin="round" d="M1661 650 c91 -48 450 -152 515 -149 11 0 -30 12 -91 25 -129 29
-278 74 -377 115 -81 33 -99 37 -47 9z"/>
<path fill="#45B7D1" stroke="#45B7D1" stroke-width="200" stroke-linejoin="round" d="M2208 493 c7 -3 16 -2 19 1 4 3 -2 6 -13 5 -11 0 -14 -3 -6 -6z"/>
</g></svg>